<mxfile host="app.diagrams.net" modified="2024-03-09T18:31:37.659Z" agent="Mozilla/5.0 (Windows NT 10.0; Win64; x64; rv:123.0) Gecko/20100101 Firefox/123.0" etag="g2cC52i-oF6A-dHedPZC" version="24.0.3" type="device">
  <diagram name="BMNP" id="BQJ-bPMyzlPp_71I7Ytf">
    <mxGraphModel dx="1728" dy="628" grid="1" gridSize="10" guides="1" tooltips="1" connect="1" arrows="1" fold="1" page="1" pageScale="1" pageWidth="827" pageHeight="1169" math="0" shadow="0">
      <root>
        <mxCell id="0" />
        <mxCell id="1" parent="0" />
        <mxCell id="qLRRIhjBLqXaCFLqT4Ej-10" value="Пользователь (Неавторизованный)" style="swimlane;startSize=20;horizontal=0;" parent="1" vertex="1">
          <mxGeometry x="30" y="410" width="1170" height="570" as="geometry" />
        </mxCell>
        <mxCell id="qLRRIhjBLqXaCFLqT4Ej-14" style="edgeStyle=none;rounded=0;orthogonalLoop=1;jettySize=auto;html=1;entryX=0;entryY=0.5;entryDx=0;entryDy=0;entryPerimeter=0;endArrow=block;endFill=1;" parent="qLRRIhjBLqXaCFLqT4Ej-10" source="qLRRIhjBLqXaCFLqT4Ej-11" target="qLRRIhjBLqXaCFLqT4Ej-13" edge="1">
          <mxGeometry relative="1" as="geometry" />
        </mxCell>
        <mxCell id="qLRRIhjBLqXaCFLqT4Ej-11" value="Авторизоваться" style="points=[[0.145,0.145,0],[0.5,0,0],[0.855,0.145,0],[1,0.5,0],[0.855,0.855,0],[0.5,1,0],[0.145,0.855,0],[0,0.5,0]];shape=mxgraph.bpmn.event;html=1;verticalLabelPosition=bottom;labelBackgroundColor=#ffffff;verticalAlign=top;align=center;perimeter=ellipsePerimeter;outlineConnect=0;aspect=fixed;outline=standard;symbol=general;" parent="qLRRIhjBLqXaCFLqT4Ej-10" vertex="1">
          <mxGeometry x="42.25" y="259.75" width="44.5" height="44.5" as="geometry" />
        </mxCell>
        <mxCell id="qLRRIhjBLqXaCFLqT4Ej-17" style="edgeStyle=orthogonalEdgeStyle;rounded=0;orthogonalLoop=1;jettySize=auto;html=1;entryX=0;entryY=0.5;entryDx=0;entryDy=0;fontSize=13;endArrow=block;endFill=1;" parent="qLRRIhjBLqXaCFLqT4Ej-10" source="qLRRIhjBLqXaCFLqT4Ej-13" target="qLRRIhjBLqXaCFLqT4Ej-16" edge="1">
          <mxGeometry relative="1" as="geometry">
            <Array as="points">
              <mxPoint x="210" y="282" />
              <mxPoint x="210" y="385" />
            </Array>
          </mxGeometry>
        </mxCell>
        <mxCell id="qLRRIhjBLqXaCFLqT4Ej-21" style="edgeStyle=orthogonalEdgeStyle;rounded=0;orthogonalLoop=1;jettySize=auto;html=1;entryX=0;entryY=0.5;entryDx=0;entryDy=0;fontSize=13;endArrow=block;endFill=1;" parent="qLRRIhjBLqXaCFLqT4Ej-10" source="qLRRIhjBLqXaCFLqT4Ej-13" target="qLRRIhjBLqXaCFLqT4Ej-20" edge="1">
          <mxGeometry relative="1" as="geometry">
            <Array as="points">
              <mxPoint x="210" y="282" />
              <mxPoint x="210" y="85" />
            </Array>
          </mxGeometry>
        </mxCell>
        <mxCell id="qLRRIhjBLqXaCFLqT4Ej-22" value="Да" style="edgeLabel;html=1;align=center;verticalAlign=middle;resizable=0;points=[];fontSize=13;" parent="qLRRIhjBLqXaCFLqT4Ej-21" vertex="1" connectable="0">
          <mxGeometry x="0.0873" y="-2" relative="1" as="geometry">
            <mxPoint x="-17" as="offset" />
          </mxGeometry>
        </mxCell>
        <mxCell id="qLRRIhjBLqXaCFLqT4Ej-13" value="" style="points=[[0.25,0.25,0],[0.5,0,0],[0.75,0.25,0],[1,0.5,0],[0.75,0.75,0],[0.5,1,0],[0.25,0.75,0],[0,0.5,0]];shape=mxgraph.bpmn.gateway2;html=1;verticalLabelPosition=bottom;labelBackgroundColor=#ffffff;verticalAlign=top;align=center;perimeter=rhombusPerimeter;outlineConnect=0;outline=none;symbol=none;gwType=exclusive;" parent="qLRRIhjBLqXaCFLqT4Ej-10" vertex="1">
          <mxGeometry x="140" y="257" width="50" height="50" as="geometry" />
        </mxCell>
        <mxCell id="qLRRIhjBLqXaCFLqT4Ej-15" value="&lt;font style=&quot;font-size: 13px;&quot;&gt;Зарегестрирован &lt;br&gt;ли пользователь?&lt;/font&gt;" style="text;html=1;align=center;verticalAlign=middle;resizable=0;points=[];autosize=1;strokeColor=none;fillColor=none;" parent="qLRRIhjBLqXaCFLqT4Ej-10" vertex="1">
          <mxGeometry x="220" y="259.75" width="130" height="40" as="geometry" />
        </mxCell>
        <mxCell id="qLRRIhjBLqXaCFLqT4Ej-19" style="edgeStyle=orthogonalEdgeStyle;rounded=0;orthogonalLoop=1;jettySize=auto;html=1;entryX=0;entryY=0.5;entryDx=0;entryDy=0;fontSize=13;endArrow=block;endFill=1;" parent="qLRRIhjBLqXaCFLqT4Ej-10" source="qLRRIhjBLqXaCFLqT4Ej-16" target="qLRRIhjBLqXaCFLqT4Ej-18" edge="1">
          <mxGeometry relative="1" as="geometry" />
        </mxCell>
        <mxCell id="qLRRIhjBLqXaCFLqT4Ej-16" value="Перейти на окно регистрации" style="rounded=1;whiteSpace=wrap;html=1;container=1;collapsible=0;absoluteArcSize=1;arcSize=20;childLayout=stackLayout;horizontal=1;horizontalStack=0;resizeParent=1;resizeParentMax=0;resizeLast=0;fontSize=13;" parent="qLRRIhjBLqXaCFLqT4Ej-10" vertex="1">
          <mxGeometry x="270" y="350" width="100" height="70" as="geometry" />
        </mxCell>
        <mxCell id="qLRRIhjBLqXaCFLqT4Ej-44" style="edgeStyle=orthogonalEdgeStyle;rounded=0;orthogonalLoop=1;jettySize=auto;html=1;fontSize=13;endArrow=block;endFill=1;" parent="qLRRIhjBLqXaCFLqT4Ej-10" source="qLRRIhjBLqXaCFLqT4Ej-18" target="qLRRIhjBLqXaCFLqT4Ej-43" edge="1">
          <mxGeometry relative="1" as="geometry" />
        </mxCell>
        <mxCell id="qLRRIhjBLqXaCFLqT4Ej-18" value="Вести данные для регистрации" style="rounded=1;whiteSpace=wrap;html=1;container=1;collapsible=0;absoluteArcSize=1;arcSize=20;childLayout=stackLayout;horizontal=1;horizontalStack=0;resizeParent=1;resizeParentMax=0;resizeLast=0;fontSize=13;" parent="qLRRIhjBLqXaCFLqT4Ej-10" vertex="1">
          <mxGeometry x="420" y="350" width="100" height="70" as="geometry" />
        </mxCell>
        <mxCell id="qLRRIhjBLqXaCFLqT4Ej-24" style="edgeStyle=orthogonalEdgeStyle;rounded=0;orthogonalLoop=1;jettySize=auto;html=1;fontSize=13;endArrow=block;endFill=1;" parent="qLRRIhjBLqXaCFLqT4Ej-10" source="qLRRIhjBLqXaCFLqT4Ej-20" target="qLRRIhjBLqXaCFLqT4Ej-27" edge="1">
          <mxGeometry relative="1" as="geometry">
            <mxPoint x="445" y="85" as="targetPoint" />
          </mxGeometry>
        </mxCell>
        <mxCell id="qLRRIhjBLqXaCFLqT4Ej-20" value="Вести логин и пароль" style="rounded=1;whiteSpace=wrap;html=1;container=1;collapsible=0;absoluteArcSize=1;arcSize=20;childLayout=stackLayout;horizontal=1;horizontalStack=0;resizeParent=1;resizeParentMax=0;resizeLast=0;fontSize=13;" parent="qLRRIhjBLqXaCFLqT4Ej-10" vertex="1">
          <mxGeometry x="295" y="50" width="100" height="70" as="geometry" />
        </mxCell>
        <mxCell id="qLRRIhjBLqXaCFLqT4Ej-29" value="" style="edgeStyle=orthogonalEdgeStyle;rounded=0;orthogonalLoop=1;jettySize=auto;html=1;fontSize=13;endArrow=block;endFill=1;entryX=0;entryY=0.5;entryDx=0;entryDy=0;" parent="qLRRIhjBLqXaCFLqT4Ej-10" source="qLRRIhjBLqXaCFLqT4Ej-27" target="qLRRIhjBLqXaCFLqT4Ej-31" edge="1">
          <mxGeometry relative="1" as="geometry">
            <mxPoint x="540" y="85" as="targetPoint" />
          </mxGeometry>
        </mxCell>
        <mxCell id="qLRRIhjBLqXaCFLqT4Ej-27" value="Отправить данные&lt;br&gt;на проверку" style="points=[[0.145,0.145,0],[0.5,0,0],[0.855,0.145,0],[1,0.5,0],[0.855,0.855,0],[0.5,1,0],[0.145,0.855,0],[0,0.5,0]];shape=mxgraph.bpmn.event;html=1;verticalLabelPosition=bottom;labelBackgroundColor=#ffffff;verticalAlign=top;align=center;perimeter=ellipsePerimeter;outlineConnect=0;aspect=fixed;outline=catching;symbol=message;fontSize=13;" parent="qLRRIhjBLqXaCFLqT4Ej-10" vertex="1">
          <mxGeometry x="445" y="60" width="50" height="50" as="geometry" />
        </mxCell>
        <mxCell id="qLRRIhjBLqXaCFLqT4Ej-34" style="edgeStyle=orthogonalEdgeStyle;rounded=0;orthogonalLoop=1;jettySize=auto;html=1;entryX=0;entryY=0.5;entryDx=0;entryDy=0;entryPerimeter=0;fontSize=13;endArrow=block;endFill=1;" parent="qLRRIhjBLqXaCFLqT4Ej-10" source="qLRRIhjBLqXaCFLqT4Ej-31" target="qLRRIhjBLqXaCFLqT4Ej-33" edge="1">
          <mxGeometry relative="1" as="geometry" />
        </mxCell>
        <mxCell id="qLRRIhjBLqXaCFLqT4Ej-31" value="Проверка соотвествия логина и пароля" style="rounded=1;whiteSpace=wrap;html=1;container=1;collapsible=0;absoluteArcSize=1;arcSize=20;childLayout=stackLayout;horizontal=1;horizontalStack=0;resizeParent=1;resizeParentMax=0;resizeLast=0;fontSize=13;" parent="qLRRIhjBLqXaCFLqT4Ej-10" vertex="1">
          <mxGeometry x="680" y="50" width="100" height="70" as="geometry" />
        </mxCell>
        <mxCell id="qLRRIhjBLqXaCFLqT4Ej-37" style="edgeStyle=orthogonalEdgeStyle;rounded=0;orthogonalLoop=1;jettySize=auto;html=1;entryX=0;entryY=0.5;entryDx=0;entryDy=0;fontSize=13;endArrow=block;endFill=1;" parent="qLRRIhjBLqXaCFLqT4Ej-10" source="qLRRIhjBLqXaCFLqT4Ej-33" target="qLRRIhjBLqXaCFLqT4Ej-36" edge="1">
          <mxGeometry relative="1" as="geometry" />
        </mxCell>
        <mxCell id="qLRRIhjBLqXaCFLqT4Ej-38" value="Да" style="edgeLabel;html=1;align=center;verticalAlign=middle;resizable=0;points=[];fontSize=13;" parent="qLRRIhjBLqXaCFLqT4Ej-37" vertex="1" connectable="0">
          <mxGeometry x="-0.281" y="1" relative="1" as="geometry">
            <mxPoint y="-14" as="offset" />
          </mxGeometry>
        </mxCell>
        <mxCell id="qLRRIhjBLqXaCFLqT4Ej-33" value="" style="points=[[0.25,0.25,0],[0.5,0,0],[0.75,0.25,0],[1,0.5,0],[0.75,0.75,0],[0.5,1,0],[0.25,0.75,0],[0,0.5,0]];shape=mxgraph.bpmn.gateway2;html=1;verticalLabelPosition=bottom;labelBackgroundColor=#ffffff;verticalAlign=top;align=center;perimeter=rhombusPerimeter;outlineConnect=0;outline=none;symbol=none;gwType=exclusive;" parent="qLRRIhjBLqXaCFLqT4Ej-10" vertex="1">
          <mxGeometry x="855" y="60" width="50" height="50" as="geometry" />
        </mxCell>
        <mxCell id="qLRRIhjBLqXaCFLqT4Ej-35" value="&lt;span style=&quot;font-size: 13px;&quot;&gt;Авторизация прошла&amp;nbsp;&lt;br&gt;&lt;/span&gt;успешна?" style="text;html=1;align=center;verticalAlign=middle;resizable=0;points=[];autosize=1;strokeColor=none;fillColor=none;" parent="qLRRIhjBLqXaCFLqT4Ej-10" vertex="1">
          <mxGeometry x="780" y="10" width="160" height="40" as="geometry" />
        </mxCell>
        <mxCell id="qLRRIhjBLqXaCFLqT4Ej-36" value="Перевести пользователя на главную страницу" style="rounded=1;whiteSpace=wrap;html=1;container=1;collapsible=0;absoluteArcSize=1;arcSize=20;childLayout=stackLayout;horizontal=1;horizontalStack=0;resizeParent=1;resizeParentMax=0;resizeLast=0;fontSize=13;" parent="qLRRIhjBLqXaCFLqT4Ej-10" vertex="1">
          <mxGeometry x="940" y="50" width="100" height="70" as="geometry" />
        </mxCell>
        <mxCell id="qLRRIhjBLqXaCFLqT4Ej-42" style="edgeStyle=orthogonalEdgeStyle;rounded=0;orthogonalLoop=1;jettySize=auto;html=1;fontSize=13;endArrow=block;endFill=1;" parent="qLRRIhjBLqXaCFLqT4Ej-10" source="qLRRIhjBLqXaCFLqT4Ej-40" target="qLRRIhjBLqXaCFLqT4Ej-20" edge="1">
          <mxGeometry relative="1" as="geometry" />
        </mxCell>
        <mxCell id="qLRRIhjBLqXaCFLqT4Ej-40" value="Сообщить об ошибке" style="rounded=1;whiteSpace=wrap;html=1;container=1;collapsible=0;absoluteArcSize=1;arcSize=20;childLayout=stackLayout;horizontal=1;horizontalStack=0;resizeParent=1;resizeParentMax=0;resizeLast=0;fontSize=13;" parent="qLRRIhjBLqXaCFLqT4Ej-10" vertex="1">
          <mxGeometry x="550" y="175" width="100" height="70" as="geometry" />
        </mxCell>
        <mxCell id="qLRRIhjBLqXaCFLqT4Ej-39" style="edgeStyle=orthogonalEdgeStyle;rounded=0;orthogonalLoop=1;jettySize=auto;html=1;fontSize=13;endArrow=block;endFill=1;entryX=1;entryY=0.5;entryDx=0;entryDy=0;exitX=0.5;exitY=1;exitDx=0;exitDy=0;exitPerimeter=0;" parent="qLRRIhjBLqXaCFLqT4Ej-10" source="qLRRIhjBLqXaCFLqT4Ej-33" target="qLRRIhjBLqXaCFLqT4Ej-40" edge="1">
          <mxGeometry relative="1" as="geometry">
            <mxPoint x="950" y="320" as="targetPoint" />
            <Array as="points">
              <mxPoint x="880" y="210" />
            </Array>
          </mxGeometry>
        </mxCell>
        <mxCell id="qLRRIhjBLqXaCFLqT4Ej-47" style="edgeStyle=orthogonalEdgeStyle;rounded=0;orthogonalLoop=1;jettySize=auto;html=1;entryX=0;entryY=0.5;entryDx=0;entryDy=0;fontSize=13;endArrow=block;endFill=1;" parent="qLRRIhjBLqXaCFLqT4Ej-10" source="G3-Vi1m3ENFODM7fDWYl-1" target="qLRRIhjBLqXaCFLqT4Ej-46" edge="1">
          <mxGeometry relative="1" as="geometry">
            <mxPoint x="700" y="385" as="targetPoint" />
          </mxGeometry>
        </mxCell>
        <mxCell id="qLRRIhjBLqXaCFLqT4Ej-43" value="Отправить данные&lt;br&gt;на проверку" style="points=[[0.145,0.145,0],[0.5,0,0],[0.855,0.145,0],[1,0.5,0],[0.855,0.855,0],[0.5,1,0],[0.145,0.855,0],[0,0.5,0]];shape=mxgraph.bpmn.event;html=1;verticalLabelPosition=bottom;labelBackgroundColor=#ffffff;verticalAlign=top;align=center;perimeter=ellipsePerimeter;outlineConnect=0;aspect=fixed;outline=catching;symbol=message;fontSize=13;noLabel=0;portConstraintRotation=0;fixDash=0;container=0;dropTarget=1;collapsible=1;backgroundOutline=0;resizeWidth=0;treeFolding=0;treeMoving=0;" parent="qLRRIhjBLqXaCFLqT4Ej-10" vertex="1">
          <mxGeometry x="575" y="360" width="50" height="50" as="geometry" />
        </mxCell>
        <mxCell id="qLRRIhjBLqXaCFLqT4Ej-50" style="edgeStyle=orthogonalEdgeStyle;rounded=0;orthogonalLoop=1;jettySize=auto;html=1;fontSize=13;endArrow=block;endFill=1;" parent="qLRRIhjBLqXaCFLqT4Ej-10" source="qLRRIhjBLqXaCFLqT4Ej-46" target="qLRRIhjBLqXaCFLqT4Ej-49" edge="1">
          <mxGeometry relative="1" as="geometry" />
        </mxCell>
        <mxCell id="qLRRIhjBLqXaCFLqT4Ej-46" value="Проверка результатов регистрации" style="rounded=1;whiteSpace=wrap;html=1;container=1;collapsible=0;absoluteArcSize=1;arcSize=20;childLayout=stackLayout;horizontal=1;horizontalStack=0;resizeParent=1;resizeParentMax=0;resizeLast=0;fontSize=13;" parent="qLRRIhjBLqXaCFLqT4Ej-10" vertex="1">
          <mxGeometry x="855" y="350" width="100" height="70" as="geometry" />
        </mxCell>
        <mxCell id="qLRRIhjBLqXaCFLqT4Ej-51" style="edgeStyle=orthogonalEdgeStyle;rounded=0;orthogonalLoop=1;jettySize=auto;html=1;entryX=0.5;entryY=1;entryDx=0;entryDy=0;fontSize=13;endArrow=block;endFill=1;" parent="qLRRIhjBLqXaCFLqT4Ej-10" source="qLRRIhjBLqXaCFLqT4Ej-49" target="qLRRIhjBLqXaCFLqT4Ej-36" edge="1">
          <mxGeometry relative="1" as="geometry" />
        </mxCell>
        <mxCell id="qLRRIhjBLqXaCFLqT4Ej-53" style="edgeStyle=orthogonalEdgeStyle;rounded=0;orthogonalLoop=1;jettySize=auto;html=1;entryX=1;entryY=0.5;entryDx=0;entryDy=0;fontSize=13;endArrow=block;endFill=1;" parent="qLRRIhjBLqXaCFLqT4Ej-10" source="qLRRIhjBLqXaCFLqT4Ej-49" target="qLRRIhjBLqXaCFLqT4Ej-52" edge="1">
          <mxGeometry relative="1" as="geometry">
            <Array as="points">
              <mxPoint x="990" y="505" />
            </Array>
          </mxGeometry>
        </mxCell>
        <mxCell id="qLRRIhjBLqXaCFLqT4Ej-49" value="" style="points=[[0.25,0.25,0],[0.5,0,0],[0.75,0.25,0],[1,0.5,0],[0.75,0.75,0],[0.5,1,0],[0.25,0.75,0],[0,0.5,0]];shape=mxgraph.bpmn.gateway2;html=1;verticalLabelPosition=bottom;labelBackgroundColor=#ffffff;verticalAlign=top;align=center;perimeter=rhombusPerimeter;outlineConnect=0;outline=none;symbol=none;gwType=exclusive;" parent="qLRRIhjBLqXaCFLqT4Ej-10" vertex="1">
          <mxGeometry x="965" y="360" width="50" height="50" as="geometry" />
        </mxCell>
        <mxCell id="qLRRIhjBLqXaCFLqT4Ej-55" style="edgeStyle=orthogonalEdgeStyle;rounded=0;orthogonalLoop=1;jettySize=auto;html=1;fontSize=13;endArrow=block;endFill=1;" parent="qLRRIhjBLqXaCFLqT4Ej-10" source="qLRRIhjBLqXaCFLqT4Ej-52" target="qLRRIhjBLqXaCFLqT4Ej-18" edge="1">
          <mxGeometry relative="1" as="geometry" />
        </mxCell>
        <mxCell id="qLRRIhjBLqXaCFLqT4Ej-52" value="Сообщить об ошибке" style="rounded=1;whiteSpace=wrap;html=1;container=1;collapsible=0;absoluteArcSize=1;arcSize=20;childLayout=stackLayout;horizontal=1;horizontalStack=0;resizeParent=1;resizeParentMax=0;resizeLast=0;fontSize=13;" parent="qLRRIhjBLqXaCFLqT4Ej-10" vertex="1">
          <mxGeometry x="580" y="470" width="100" height="70" as="geometry" />
        </mxCell>
        <mxCell id="Owea586VlnzDfNVI4CXQ-1" style="edgeStyle=orthogonalEdgeStyle;rounded=0;orthogonalLoop=1;jettySize=auto;html=1;fontSize=13;endArrow=block;endFill=0;dashed=1;startArrow=oval;startFill=0;jumpSize=6;startSize=10;entryX=0.5;entryY=0;entryDx=0;entryDy=0;" parent="qLRRIhjBLqXaCFLqT4Ej-10" target="qLRRIhjBLqXaCFLqT4Ej-31" edge="1">
          <mxGeometry relative="1" as="geometry">
            <mxPoint x="729.58" y="-40" as="sourcePoint" />
            <mxPoint x="729.58" y="350" as="targetPoint" />
            <Array as="points" />
          </mxGeometry>
        </mxCell>
        <mxCell id="G3-Vi1m3ENFODM7fDWYl-1" value="Поверка email на корректность и наличие в БД" style="rounded=1;whiteSpace=wrap;html=1;container=1;collapsible=0;absoluteArcSize=1;arcSize=20;childLayout=stackLayout;horizontal=1;horizontalStack=0;resizeParent=1;resizeParentMax=0;resizeLast=0;fontSize=13;" vertex="1" parent="qLRRIhjBLqXaCFLqT4Ej-10">
          <mxGeometry x="640" y="350" width="100" height="70" as="geometry" />
        </mxCell>
        <mxCell id="G3-Vi1m3ENFODM7fDWYl-2" value="" style="edgeStyle=orthogonalEdgeStyle;rounded=0;orthogonalLoop=1;jettySize=auto;html=1;entryX=0;entryY=0.5;entryDx=0;entryDy=0;fontSize=13;endArrow=block;endFill=1;" edge="1" parent="qLRRIhjBLqXaCFLqT4Ej-10" source="qLRRIhjBLqXaCFLqT4Ej-43" target="G3-Vi1m3ENFODM7fDWYl-1">
          <mxGeometry relative="1" as="geometry">
            <mxPoint x="835" y="795" as="targetPoint" />
            <mxPoint x="655" y="795" as="sourcePoint" />
          </mxGeometry>
        </mxCell>
        <mxCell id="qLRRIhjBLqXaCFLqT4Ej-56" style="edgeStyle=orthogonalEdgeStyle;rounded=0;orthogonalLoop=1;jettySize=auto;html=1;fontSize=13;endArrow=block;endFill=0;dashed=1;startArrow=oval;startFill=0;jumpSize=6;startSize=10;" parent="qLRRIhjBLqXaCFLqT4Ej-10" edge="1">
          <mxGeometry relative="1" as="geometry">
            <mxPoint x="905" y="-40" as="sourcePoint" />
            <mxPoint x="905" y="350" as="targetPoint" />
            <Array as="points">
              <mxPoint x="905" y="330" />
              <mxPoint x="905" y="330" />
            </Array>
          </mxGeometry>
        </mxCell>
        <mxCell id="G3-Vi1m3ENFODM7fDWYl-4" value="Проверка пароля на минимальную длину (&amp;gt; 6)" style="rounded=1;whiteSpace=wrap;html=1;container=1;collapsible=0;absoluteArcSize=1;arcSize=20;childLayout=stackLayout;horizontal=1;horizontalStack=0;resizeParent=1;resizeParentMax=0;resizeLast=0;fontSize=13;" vertex="1" parent="qLRRIhjBLqXaCFLqT4Ej-10">
          <mxGeometry x="750" y="350" width="100" height="70" as="geometry" />
        </mxCell>
        <mxCell id="G3-Vi1m3ENFODM7fDWYl-5" style="edgeStyle=orthogonalEdgeStyle;rounded=0;orthogonalLoop=1;jettySize=auto;html=1;fontSize=13;endArrow=block;endFill=0;dashed=1;startArrow=oval;startFill=0;jumpSize=6;startSize=10;entryX=0.414;entryY=-0.02;entryDx=0;entryDy=0;entryPerimeter=0;" edge="1" parent="qLRRIhjBLqXaCFLqT4Ej-10">
          <mxGeometry relative="1" as="geometry">
            <mxPoint x="796" y="-29" as="sourcePoint" />
            <mxPoint x="797" y="360" as="targetPoint" />
            <Array as="points">
              <mxPoint x="796" y="16" />
              <mxPoint x="797" y="16" />
            </Array>
          </mxGeometry>
        </mxCell>
        <mxCell id="qLRRIhjBLqXaCFLqT4Ej-25" value="Backend-приложение" style="shape=mxgraph.bpmn.task;part=1;taskMarker=abstract;rectStyle=square;whiteSpace=wrap;fontSize=13;gradientColor=none;" parent="1" vertex="1">
          <mxGeometry x="30" y="330" width="1170" height="40" as="geometry" />
        </mxCell>
        <mxCell id="qLRRIhjBLqXaCFLqT4Ej-26" style="edgeStyle=orthogonalEdgeStyle;rounded=0;orthogonalLoop=1;jettySize=auto;html=1;fontSize=13;endArrow=block;endFill=0;dashed=1;startArrow=oval;startFill=0;startSize=10;endSize=7;" parent="1" source="qLRRIhjBLqXaCFLqT4Ej-27" target="qLRRIhjBLqXaCFLqT4Ej-25" edge="1">
          <mxGeometry relative="1" as="geometry">
            <mxPoint x="499.9999999999998" y="470" as="sourcePoint" />
            <Array as="points">
              <mxPoint x="500" y="400" />
              <mxPoint x="500" y="400" />
            </Array>
          </mxGeometry>
        </mxCell>
        <mxCell id="qLRRIhjBLqXaCFLqT4Ej-57" style="edgeStyle=orthogonalEdgeStyle;rounded=0;orthogonalLoop=1;jettySize=auto;html=1;fontSize=13;endArrow=block;endFill=0;dashed=1;startArrow=oval;startFill=0;strokeColor=#000000;targetPerimeterSpacing=0;sketch=0;startSize=10;snapToPoint=1;fixDash=0;metaEdit=0;backgroundOutline=0;noJump=0;flowAnimation=0;orthogonal=0;enumerate=0;comic=0;shadow=0;" parent="1" source="qLRRIhjBLqXaCFLqT4Ej-43" edge="1">
          <mxGeometry relative="1" as="geometry">
            <mxPoint x="510" y="480" as="sourcePoint" />
            <mxPoint x="630" y="369" as="targetPoint" />
            <Array as="points">
              <mxPoint x="630" y="490" />
              <mxPoint x="630" y="490" />
            </Array>
          </mxGeometry>
        </mxCell>
        <mxCell id="G3-Vi1m3ENFODM7fDWYl-3" style="edgeStyle=orthogonalEdgeStyle;rounded=0;orthogonalLoop=1;jettySize=auto;html=1;fontSize=13;endArrow=block;endFill=0;dashed=1;startArrow=oval;startFill=0;jumpSize=6;startSize=10;entryX=0.414;entryY=-0.02;entryDx=0;entryDy=0;entryPerimeter=0;" edge="1" parent="1" target="G3-Vi1m3ENFODM7fDWYl-1">
          <mxGeometry relative="1" as="geometry">
            <mxPoint x="710" y="370" as="sourcePoint" />
            <mxPoint x="710.42" y="460" as="targetPoint" />
            <Array as="points">
              <mxPoint x="710" y="415" />
              <mxPoint x="711" y="415" />
            </Array>
          </mxGeometry>
        </mxCell>
      </root>
    </mxGraphModel>
  </diagram>
</mxfile>
